<?xml version="1.0" encoding="UTF-8"?>
<svg width="440.24" height="436.99" version="1.1" viewBox="0 0 440.24 436.99" xmlns="http://www.w3.org/2000/svg">
 <path d="m143.09 72.475 41.549 69.559 90.006 0.43482 27.633-130.48 125.69-0.49152 0.7695 115.75-17.355 144.2-0.28246 118.83-122.32-0.81428-163.88 35.48-113.41 0.54131 0.48419-352.86z" fill="none" stroke="#048cc4" stroke-linejoin="round" stroke-width="23"/>
 <g transform="translate(20.858 15.273)" fill-rule="evenodd">
  <path d="m329.03 34.04c-5.607 0.591-9.354 3.24-10.917 7.716-1.112 3.188-1.077 31.501 0.044 34.405 2.636 6.837 6.218 8.021 24.243 8.014 23.879-9e-3 24.6-0.759 24.6-25.575v-15.2l-1.036-2.2c-2.237-4.751-5.033-6.54-11.241-7.194-4.408-0.464-21.173-0.442-25.693 0.034m-284.63 66.769c-8.623 1.507-10.383 5.031-10.683 21.391-0.507 27.536 0.947 28.99 28.483 28.483 15.35-0.282 18.219-1.421 20.86-8.283 0.879-2.283 1.312-26.733 0.552-31.101-1.056-6.065-4.276-9.368-10.198-10.463-2.699-0.499-26.189-0.521-29.014-0.027m150.09 66.82c-8.738 1.521-10.194 4.728-10.4 22.911-0.283 25.037 0.683 26.198 22.11 26.555 19.448 0.324 23.829-0.955 26.438-7.718 1.311-3.4 1.154-31.91-0.192-34.889-1.224-2.708-4.246-5.458-6.985-6.355-2.38-0.78-27.077-1.182-30.971-0.504m118.31 116.36c-6.203 0.651-9.519 2.97-11.46 8.014-0.879 2.283-1.312 26.733-0.552 31.101 1.517 8.709 5.28 10.764 20.412 11.148 26.798 0.68 29.097-1.039 29.483-22.049 0.498-27.082-0.928-28.654-25.883-28.532-5.17 0.025-10.57 0.168-12 0.318m-270 33.837c-7.309 1.969-8.746 5.325-9.07 21.177-0.407 19.922 0.655 23.754 7.47 26.964l2.2 1.036h15.2c25.077 0 25.608-0.554 25.305-26.434-0.197-16.873-1.023-19.423-7.193-22.212-2.711-1.225-29.765-1.648-33.912-0.531" fill="#fcfcfc"/>
  <path d="m290.18 7.3-1.175 1.3 1.3-1.175c0.715-0.646 1.3-1.231 1.3-1.3 0-0.309-0.33-0.037-1.425 1.175m102.62-1.175c0 0.069 0.585 0.654 1.3 1.3l1.3 1.175-1.175-1.3c-1.095-1.212-1.425-1.484-1.425-1.175m-370.3 62.551c0.385 0.1 1.015 0.1 1.4 0 0.385-0.101 0.07-0.183-0.7-0.183s-1.085 0.082-0.7 0.183m71.2 0c0.385 0.1 1.015 0.1 1.4 0 0.385-0.101 0.07-0.183-0.7-0.183s-1.085 0.082-0.7 0.183m21.993 21.324c0 0.77 0.082 1.085 0.183 0.7 0.1-0.385 0.1-1.015 0-1.4-0.101-0.385-0.183-0.07-0.183 0.7m-114 0.8c0 0.77 0.082 1.085 0.183 0.7 0.1-0.385 0.1-1.015 0-1.4-0.101-0.385-0.183-0.07-0.183 0.7m165.51 45.034c-9.809 1.635-13.951 6.64-15.202 18.366-0.503 4.712-0.503 71.288 0 76 1.281 12.007 5.397 16.803 15.802 18.415 6.231 0.966 80.808 0.669 84.53-0.336 7.455-2.014 10.957-5.724 12.785-13.548 1.046-4.477 1.046-80.585 0-85.062-1.828-7.824-5.329-11.533-12.785-13.548-3.536-0.955-79.585-1.212-85.13-0.287m-165.51 24.566c0 0.77 0.082 1.085 0.183 0.7 0.1-0.385 0.1-1.015 0-1.4-0.101-0.385-0.183-0.07-0.183 0.7m114 0.8c0 0.77 0.082 1.085 0.183 0.7 0.1-0.385 0.1-1.015 0-1.4-0.101-0.385-0.183-0.07-0.183 0.7m109.77 6.933c2.739 0.897 5.761 3.647 6.985 6.355 1.346 2.979 1.503 31.489 0.192 34.889-2.609 6.763-6.99 8.042-26.438 7.718-21.427-0.357-22.393-1.518-22.11-26.555 0.258-22.712 0.985-23.363 25.91-23.181 11.311 0.083 13.721 0.203 15.461 0.774m-202.16 14.543c0.385 0.1 1.015 0.1 1.4 0 0.385-0.101 0.07-0.183-0.7-0.183s-1.085 0.082-0.7 0.183m69.6 0c0.385 0.1 1.015 0.1 1.4 0 0.385-0.101 0.07-0.183-0.7-0.183s-1.085 0.082-0.7 0.183m197.2 69.2c0.385 0.1 1.015 0.1 1.4 0 0.385-0.101 0.07-0.183-0.7-0.183s-1.085 0.082-0.7 0.183m69.6 0c0.385 0.1 1.015 0.1 1.4 0 0.385-0.101 0.07-0.183-0.7-0.183s-1.085 0.082-0.7 0.183m-91.207 21.324c0 0.77 0.082 1.085 0.183 0.7 0.1-0.385 0.1-1.015 0-1.4-0.101-0.385-0.183-0.07-0.183 0.7m114 0.8c0 0.77 0.082 1.085 0.183 0.7 0.1-0.385 0.1-1.015 0-1.4-0.101-0.385-0.183-0.07-0.183 0.7m-375.52 16.5-1.175 1.3 1.3-1.175c0.715-0.646 1.3-1.231 1.3-1.3 0-0.309-0.33-0.037-1.425 1.175m375.52 53.1c0 0.77 0.082 1.085 0.183 0.7 0.1-0.385 0.1-1.015 0-1.4-0.101-0.385-0.183-0.07-0.183 0.7m-114 0.8c0 0.77 0.082 1.085 0.183 0.7 0.1-0.385 0.1-1.015 0-1.4-0.101-0.385-0.183-0.07-0.183 0.7m20.807 21.476c0.385 0.1 1.015 0.1 1.4 0 0.385-0.101 0.07-0.183-0.7-0.183s-1.085 0.082-0.7 0.183m71.2 0c0.385 0.1 1.015 0.1 1.4 0 0.385-0.101 0.07-0.183-0.7-0.183s-1.085 0.082-0.7 0.183m-354.5 27.049c0 0.069 0.585 0.654 1.3 1.3l1.3 1.175-1.175-1.3c-1.095-1.212-1.425-1.484-1.425-1.175" fill="#dc441c"/>
  <path d="m304.8 2.063c-11.695 1.092-16.459 4.764-18.721 14.433-1.046 4.472-1.035 80.179 0.012 84.666 2.298 9.844 6.799 13.276 18.909 14.421 5.872 0.555 68.528 0.555 74.4 0 12.11-1.145 16.611-4.577 18.909-14.421 1.047-4.487 1.058-80.194 0.012-84.666-2.315-9.896-6.957-13.338-19.521-14.476-5.606-0.508-68.486-0.471-74 0.043m49.923 31.943c6.208 0.654 9.004 2.443 11.241 7.194l1.036 2.2v15.2c0 24.816-0.721 25.566-24.6 25.575-18.025 7e-3 -21.607-1.177-24.243-8.014-1.121-2.904-1.156-31.217-0.044-34.405 1.563-4.476 5.31-7.125 10.917-7.716 4.52-0.476 21.285-0.498 25.693-0.034m-333.71 34.835c-11.616 1.153-16.52 5.177-18.47 15.159-0.838 4.286-1.31 68.497-0.57 77.435 1.128 13.614 4.799 18.419 15.624 20.451 5.804 1.09 76.596 1.09 82.4 0 10.735-2.015 14.429-6.676 15.615-19.704 0.718-7.895 0.284-74.335-0.511-78.182-1.908-9.226-5.475-12.794-14.704-14.705-3.472-0.719-72.723-1.115-79.384-0.454m52.398 31.995c5.922 1.095 9.142 4.398 10.198 10.463 0.76 4.368 0.327 28.818-0.552 31.101-2.641 6.862-5.51 8.001-20.86 8.283-27.536 0.507-28.99-0.947-28.483-28.483 0.3-16.36 2.06-19.884 10.683-21.391 2.825-0.494 26.315-0.472 29.014 0.027m215.13 151.2c-14.069 1.256-18.496 5.805-19.761 20.305-0.721 8.273-0.286 74.181 0.515 78.059 1.908 9.226 5.477 12.796 14.704 14.704 3.847 0.795 70.287 1.229 78.182 0.511 13.028-1.186 17.689-4.88 19.704-15.615 1.09-5.804 1.09-76.596 0-82.4-2.003-10.669-6.819-14.445-19.886-15.59-5.458-0.478-68.053-0.456-73.458 0.026m49.298 31.938c11.352 1.099 13.265 5.302 12.843 28.226-0.386 21.01-2.685 22.729-29.483 22.049-19.654-0.499-21.001-2.261-20.709-27.103 0.186-15.917 0.684-17.974 5.041-20.852 3.709-2.449 19.364-3.573 32.308-2.32m-318.23 1.667c-12.05 1.433-16.352 6.314-17.588 19.959-0.555 6.121-0.555 67.079 0 73.2 1.138 12.564 4.58 17.206 14.476 19.521 4.472 1.046 80.179 1.035 84.666-0.012 9.844-2.298 13.276-6.799 14.421-18.909 0.555-5.872 0.555-68.528 0-74.4-1.136-12.025-4.539-16.544-14.218-18.883-3.143-0.759-75.816-1.183-81.757-0.476m57.104 32.713c6.17 2.789 6.996 5.339 7.193 22.212 0.303 25.88-0.228 26.434-25.305 26.434h-15.2l-2.2-1.036c-6.815-3.21-7.877-7.042-7.47-26.964 0.324-15.852 1.761-19.208 9.07-21.177 4.147-1.117 31.201-0.694 33.912 0.531" fill="#dc441c"/>
 </g>
</svg>
